<svg width="75" height="33" viewBox="0 0 75 33" fill="none" xmlns="http://www.w3.org/2000/svg">
<path d="M45.5301 5.96973H40.6934V26.9482H55.5758V22.8555H45.5301V5.96973Z" fill="#181818"/>
<path d="M66.2344 18.9496H70.1839V22.613C69.4541 22.8992 68.0374 23.171 66.6923 23.171C62.3278 23.171 60.8825 20.953 60.8825 16.4597C60.8825 11.9663 62.2705 9.63379 66.6208 9.63379C69.0391 9.63379 70.4272 10.3922 71.572 11.8518L74.5771 9.09001C72.7454 6.45697 69.5257 5.66992 66.5063 5.66992C59.7233 5.66992 56.1602 9.37621 56.1602 16.431C56.1602 23.4859 59.3799 27.2637 66.4777 27.2637C69.726 27.2637 72.9172 26.4337 74.6487 25.2174V15.043H66.2344V18.9496Z" fill="#181818"/>
<path d="M17.21 0.318359C8.2519 0.318359 0.982422 7.58784 0.982422 16.5459C0.982422 25.504 8.2519 32.7734 17.21 32.7734C26.168 32.7734 33.4375 25.504 33.4375 16.5459C33.4375 7.58784 26.168 0.318359 17.21 0.318359Z" fill="#181818"/>
<path d="M26.8962 26.2328C24.3061 28.8229 20.8574 30.2396 17.2084 30.2396C13.5593 30.2396 10.1106 28.8086 7.5205 26.2328C4.93039 23.6427 3.5137 20.194 3.5137 16.5449C3.49939 8.98924 9.65269 2.83594 17.2084 2.83594H17.9811V4.36711H17.2084C13.96 4.36711 10.8977 5.6407 8.59375 7.9303C6.28984 10.2342 5.03056 13.2965 5.03056 16.5449C5.03056 19.7933 6.30415 22.8556 8.59375 25.1595C10.8977 27.4634 13.96 28.737 17.2084 28.737C23.6049 28.737 28.9426 23.7428 29.3719 17.3606C29.3719 17.3606 29.3719 17.332 29.3719 17.3177H21.2152V15.8008H30.9173V16.5306C30.9173 20.194 29.4863 23.6284 26.8962 26.2185" fill="white"/>
<path d="M21.2008 22.2543V23.7711H16.4355V9.30371H17.981V22.2543H21.2008Z" fill="white"/>
<path d="M14.103 11.365C14.103 12.5098 13.1729 13.4256 12.0281 13.4256C10.8833 13.4256 9.95312 12.4955 9.95312 11.365C9.95312 10.2345 10.8833 9.29004 12.0281 9.29004C13.1729 9.29004 14.103 10.2202 14.103 11.365Z" fill="white"/>
</svg>
