<svg width="16" height="22" viewBox="0 0 16 22" xmlns="http://www.w3.org/2000/svg">
<path fill="#646464" d="M2 11.0107C2 14.3196 4.69112 17.0107 8 17.0107C11.3089 17.0107 14 14.3197 14 11.0107H16C16 15.0837 12.9389 18.4464 9 18.9414V21.0107H7V18.9414C3.06116 18.4463 0 15.0826 0 11.0107H2ZM8.02051 0.989258C10.2145 0.989258 12 2.79378 12 5.01074V11.0107C11.9997 13.2165 10.2058 15.0097 8 15.0098C5.79419 15.0098 4.00026 13.2165 4 11.0107V5.01074C4.00136 3.98289 4.398 2.99474 5.10742 2.25098C5.81686 1.50729 6.78495 1.06453 7.81152 1.01465C7.87988 0.998491 7.95027 0.989712 8.02051 0.989258Z"/>
</svg>
