<svg width="25" height="25" viewBox="0 0 25 25" fill="none" xmlns="http://www.w3.org/2000/svg">
<path d="M10.5529 20.105C12.4506 20.1046 14.2936 19.4694 15.7884 18.3004L19.7324 22.2442C20.1499 22.6616 20.8267 22.6616 21.2441 22.2442C21.6616 21.8268 21.6616 21.1499 21.2441 20.7325L17.3002 16.7888C18.4698 15.2938 19.1054 13.4505 19.1059 11.5525C19.1059 6.83686 15.2688 3 10.5529 3C5.83707 3 2 6.83686 2 11.5525C2 16.2681 5.83707 20.105 10.5529 20.105ZM10.5529 5.13812C14.0907 5.13812 16.9677 8.01497 16.9677 11.5525C16.9677 15.09 14.0907 17.9669 10.5529 17.9669C7.01523 17.9669 4.13824 15.09 4.13824 11.5525C4.13824 8.01497 7.01523 5.13812 10.5529 5.13812Z" fill="#EDEDED"/>
</svg>
