<svg width="175" height="48" viewBox="0 0 175 48" fill="none" xmlns="http://www.w3.org/2000/svg">
<path d="M0.60571 46.89C0.201904 46.5366 0 46.0319 0 45.4262V25.7911C0 25.1854 0.201903 24.6806 0.656186 24.3273C1.11047 23.9739 1.61523 23.772 2.17046 23.772C2.7257 23.772 3.23045 23.9235 3.68474 24.2768C4.13902 24.6301 4.34092 25.0844 4.34092 25.6396V27.8606C5.04759 26.3968 6.0571 25.2863 7.36947 24.4787C8.73232 23.6711 10.2466 23.3177 11.9628 23.3177C13.9313 23.3177 15.597 23.8225 16.9599 24.7815C18.3227 25.7406 19.2818 27.1034 19.7865 28.8701C20.4427 27.053 21.5027 25.6396 22.9665 24.7311C24.4303 23.8225 26.197 23.3177 28.317 23.3177C29.5284 23.3177 30.6388 23.4692 31.6484 23.8225C32.6579 24.1758 33.5664 24.6806 34.3741 25.3873C35.1817 26.0939 35.7874 27.053 36.2417 28.2139C36.6959 29.4253 36.8979 30.7882 36.8979 32.3529V45.3757C36.8979 46.0319 36.6959 46.4862 36.2417 46.8395C35.7874 47.1928 35.2826 47.3947 34.7274 47.3947C34.1217 47.3947 33.6169 47.1928 33.2131 46.8395C32.8093 46.4862 32.6074 45.9814 32.6074 45.3757V32.252C32.6074 30.2834 32.1531 28.8196 31.2446 27.8101C30.336 26.8006 29.0741 26.2958 27.4084 26.2958C25.4398 26.2958 23.7741 26.952 22.5122 28.2644C21.2503 29.5768 20.5941 31.4444 20.5941 33.9682V45.3757C20.5941 46.0319 20.3922 46.4862 19.938 46.89C19.5342 47.2433 18.9789 47.4452 18.4237 47.4452C17.8685 47.4452 17.3637 47.2433 16.9599 46.89C16.5561 46.5366 16.3542 46.0319 16.3542 45.3757V32.8072C16.3542 28.4158 14.638 26.2453 11.1552 26.2453C9.08565 26.2453 7.41995 26.9015 6.20853 28.2139C4.94663 29.5263 4.34092 31.3939 4.34092 33.7663V45.3757C4.34092 46.0319 4.13902 46.4862 3.68474 46.8395C3.23045 47.1928 2.7257 47.3947 2.11999 47.3947C1.51428 47.4452 1.00952 47.2433 0.60571 46.89Z" fill="#133E73"/>
<path d="M45.529 44.4129C43.3586 42.091 42.2986 39.1634 42.2986 35.6301C42.2986 32.0463 43.3586 29.1187 45.529 26.7969C47.6995 24.475 50.5766 23.3645 54.2109 23.3645C57.8452 23.3645 60.7728 24.5254 62.8927 26.7969C65.0632 29.0683 66.1232 32.0463 66.1232 35.6301C66.1232 39.2139 65.0632 42.1415 62.8927 44.4129C60.7728 46.7348 57.8451 47.8453 54.1604 47.8453C50.5766 47.8453 47.6995 46.7348 45.529 44.4129ZM59.8642 42.4444C61.227 40.7787 61.8832 38.5073 61.8832 35.6301C61.8832 32.753 61.227 30.4816 59.8642 28.8159C58.5013 27.1502 56.6337 26.2921 54.2614 26.2921C51.889 26.2921 49.9709 27.1502 48.6585 28.8159C47.2957 30.4816 46.6395 32.753 46.6395 35.6806C46.6395 38.5577 47.2957 40.7787 48.6585 42.4949C50.0214 44.1606 51.8385 45.0186 54.2614 45.0186C56.6337 44.9177 58.5013 44.0596 59.8642 42.4444Z" fill="#133E73"/>
<path d="M79.045 46.6929C77.6316 45.9358 76.5212 44.7748 75.764 43.2606V45.3805C75.764 45.9862 75.5621 46.491 75.2088 46.8443C74.8555 47.1977 74.3002 47.3996 73.5936 47.3996C73.0383 47.3996 72.5336 47.1977 72.0793 46.8443C71.6755 46.491 71.4231 45.9862 71.4231 45.3805V15.4484C71.4231 14.8426 71.625 14.3379 72.0793 13.9846C72.4831 13.6312 72.9878 13.4293 73.5936 13.4293C74.1993 13.4293 74.704 13.6312 75.1078 13.9846C75.5116 14.3379 75.764 14.8426 75.764 15.4484V27.8149C76.4707 26.3511 77.5307 25.2911 78.8935 24.4835C80.2564 23.7264 81.8211 23.3226 83.5878 23.3226C85.2535 23.3226 86.7173 23.6254 88.0801 24.2816C89.443 24.8873 90.5534 25.7959 91.4115 26.8559C92.2696 27.9664 92.9763 29.2283 93.4306 30.6921C93.8849 32.1559 94.1372 33.7206 94.1372 35.4368C94.1372 37.1025 93.9353 38.6672 93.481 40.131C93.0268 41.5948 92.421 42.9072 91.6134 44.0682C90.8058 45.2291 89.6954 46.1377 88.383 46.7939C87.0706 47.4501 85.5563 47.8034 83.9411 47.8034C82.124 47.8539 80.4583 47.5005 79.045 46.6929ZM86.4144 44.0177C87.323 43.4625 88.0297 42.6548 88.4839 41.7463C88.9382 40.7872 89.2915 39.8282 89.5439 38.7682C89.7458 37.7587 89.8973 36.6987 89.8973 35.5882C89.8973 34.4273 89.7963 33.3673 89.5439 32.3073C89.2915 31.2473 88.9382 30.2883 88.4335 29.3292C87.9287 28.4206 87.222 27.6635 86.263 27.1083C85.3544 26.553 84.244 26.3007 83.0325 26.3007C81.7706 26.3007 80.6602 26.553 79.7516 27.1083C78.7926 27.613 78.0859 28.3197 77.5307 29.2283C76.9754 30.1368 76.5716 31.0959 76.3193 32.1559C76.0669 33.2159 75.9155 34.3768 75.9155 35.5377C75.9155 41.7968 78.3888 44.9767 83.2849 44.9767C84.3954 44.9263 85.5059 44.6234 86.4144 44.0177Z" fill="#133E73"/>
<path d="M100.145 17.5598C99.6398 17.055 99.3875 16.4493 99.3875 15.6922C99.3875 14.935 99.6398 14.2789 100.145 13.7741C100.649 13.2693 101.356 13.017 102.164 13.017C102.971 13.017 103.678 13.2693 104.183 13.7236C104.687 14.2284 104.94 14.8341 104.94 15.6417C104.94 16.3988 104.687 17.055 104.183 17.5093C103.678 18.0141 103.022 18.216 102.164 18.216C101.356 18.2665 100.649 18.0646 100.145 17.5598ZM100.649 46.8863C100.246 46.5329 100.044 45.9777 100.044 45.271V25.9388C100.044 25.2826 100.246 24.7274 100.7 24.374C101.154 23.9702 101.659 23.8188 102.214 23.8188C102.769 23.8188 103.274 24.0207 103.678 24.374C104.082 24.7778 104.284 25.2826 104.284 25.9388V45.271C104.284 45.9272 104.082 46.4825 103.627 46.8358C103.173 47.2396 102.668 47.4415 102.113 47.4415C101.558 47.4415 101.104 47.2396 100.649 46.8863Z" fill="#133E73"/>
<path d="M112.41 46.8912C112.006 46.5379 111.804 45.9826 111.804 45.276V15.5962C111.804 14.94 112.006 14.3848 112.46 14.0314C112.914 13.6276 113.419 13.4762 113.974 13.4762C114.53 13.4762 115.034 13.6781 115.438 14.0314C115.842 14.4352 116.044 14.94 116.044 15.5962V45.276C116.044 45.9322 115.842 46.4874 115.388 46.8407C114.933 47.2445 114.429 47.4464 113.873 47.4464C113.318 47.4464 112.813 47.2445 112.41 46.8912Z" fill="#133E73"/>
<path d="M123.717 17.5598C123.212 17.055 122.959 16.4493 122.959 15.6922C122.959 14.935 123.212 14.2789 123.717 13.7741C124.221 13.2693 124.928 13.017 125.736 13.017C126.543 13.017 127.25 13.2693 127.755 13.7236C128.259 14.2284 128.512 14.8341 128.512 15.6417C128.512 16.3988 128.259 17.055 127.755 17.5093C127.25 18.0141 126.594 18.216 125.736 18.216C124.878 18.2665 124.221 18.0646 123.717 17.5598ZM124.221 46.8863C123.818 46.5329 123.616 45.9777 123.616 45.271V25.9388C123.616 25.2826 123.818 24.7274 124.272 24.374C124.726 23.9702 125.231 23.8188 125.786 23.8188C126.341 23.8188 126.846 24.0207 127.25 24.374C127.654 24.7778 127.856 25.2826 127.856 25.9388V45.271C127.856 45.9272 127.654 46.4825 127.199 46.8358C126.745 47.2396 126.24 47.4415 125.685 47.4415C125.13 47.4415 124.625 47.2396 124.221 46.8863Z" fill="#7C7C7E"/>
<path d="M135.629 46.8862C135.225 46.5329 135.023 46.0282 135.023 45.372V25.8378C135.023 25.1816 135.225 24.7273 135.679 24.374C136.083 24.0207 136.638 23.8188 137.194 23.8188C137.799 23.8188 138.304 23.9702 138.708 24.3235C139.112 24.6769 139.314 25.1312 139.314 25.7873V27.8569C139.919 26.3931 140.929 25.2826 142.292 24.5254C143.655 23.7683 145.27 23.3645 147.087 23.3645C149.712 23.3645 151.781 24.1216 153.346 25.6359C154.911 27.1502 155.668 29.4721 155.668 32.5511V45.372C155.668 46.0282 155.466 46.5329 155.062 46.8862C154.658 47.2396 154.154 47.4415 153.548 47.4415C152.942 47.4415 152.437 47.2396 152.034 46.8862C151.63 46.5329 151.428 46.0282 151.428 45.372V32.5006C151.428 30.4816 150.974 28.9168 150.015 27.8569C149.055 26.7969 147.743 26.2416 146.027 26.2416C144.21 26.2416 142.645 26.8978 141.434 28.2102C140.172 29.5226 139.516 31.2892 139.364 33.5101V45.372C139.364 46.0282 139.162 46.4824 138.708 46.8862C138.254 47.2396 137.749 47.4415 137.194 47.4415C136.537 47.4415 136.033 47.2396 135.629 46.8862Z" fill="#7C7C7E"/>
<path d="M165.713 45.9847C164.653 44.8238 164.097 43.0067 164.097 40.5333V26.8544H161.17C160.665 26.8544 160.261 26.703 159.958 26.4506C159.655 26.1982 159.554 25.8449 159.554 25.4411C159.554 25.0373 159.706 24.6839 159.958 24.4315C160.211 24.1792 160.614 24.0277 161.17 24.0277H164.097L164.653 17.264C164.703 16.7592 164.905 16.3049 165.309 15.9516C165.712 15.5983 166.217 15.3964 166.722 15.3964C167.176 15.3964 167.58 15.5478 167.933 15.8506C168.236 16.1535 168.388 16.5573 168.388 17.1125V24.0277H172.779C173.284 24.0277 173.688 24.1792 173.94 24.4315C174.192 24.6839 174.344 25.0373 174.344 25.4915C174.344 26.4001 173.839 26.8544 172.779 26.8544H168.388V39.8267C168.388 41.4419 168.64 42.6533 169.094 43.36C169.549 44.0667 170.306 44.42 171.265 44.42H171.517L173.132 44.3695H173.284C173.789 44.3695 174.243 44.5209 174.546 44.8743C174.849 45.2276 175 45.5809 175 46.0352C175 46.439 174.899 46.7419 174.748 46.9942C174.596 47.2466 174.293 47.3981 173.94 47.5495C173.587 47.6504 173.233 47.7514 172.88 47.7514C172.527 47.8019 172.072 47.8019 171.467 47.8019H170.053C168.236 47.7514 166.772 47.1962 165.713 45.9847Z" fill="#7C7C7E"/>
<mask id="mask0_410_1178" style="mask-type:luminance" maskUnits="userSpaceOnUse" x="98" y="0" width="32" height="9">
<path d="M126.947 8.68754C126.492 8.68754 126.038 8.53611 125.685 8.28373C125.634 8.23325 122.606 6.01232 118.164 4.95232C112.41 3.539 107.009 4.64947 102.214 8.28373C101.255 8.99039 99.9421 8.78849 99.2355 7.87992C98.5288 6.92088 98.7307 5.60851 99.6393 4.90185C105.494 0.510448 113.167 -1.0543 120.233 0.712352C125.483 2.02472 128.158 4.8009 128.31 4.90185C129.269 5.60851 129.471 6.97136 128.713 7.87992C128.259 8.38468 127.603 8.68754 126.947 8.68754Z" fill="white"/>
</mask>
<g mask="url(#mask0_410_1178)">
<path d="M129.622 -1.30994H98.2261V9.99665H129.622V-1.30994Z" fill="url(#paint0_linear_410_1178)"/>
</g>
<defs>
<linearGradient id="paint0_linear_410_1178" x1="98.2279" y1="4.35966" x2="129.638" y2="4.35966" gradientUnits="userSpaceOnUse">
<stop stop-color="#133E73"/>
<stop offset="1" stop-color="#7C7C7E"/>
</linearGradient>
</defs>
</svg>
