<svg width="25" height="25" viewBox="0 0 25 25" fill="none" xmlns="http://www.w3.org/2000/svg">
<path d="M3.33516 19.7128C3.11172 19.5214 3 19.2521 3 18.9115V8.32449C3 7.99058 3.11842 7.72791 3.35527 7.53425C3.59211 7.34281 3.86471 7.24486 4.17305 7.24486C4.4814 7.24486 4.75399 7.3339 4.99084 7.51421C5.22768 7.69452 5.34611 7.94161 5.34611 8.25771V9.45086C5.71478 8.66284 6.26444 8.05959 6.99508 7.63442C7.72573 7.21147 8.55692 7 9.49313 7C10.5567 7 11.4639 7.25822 12.2101 7.77688C12.9564 8.29555 13.4636 9.03236 13.7295 9.98955C14.0893 8.99675 14.6657 8.25103 15.4545 7.75017C16.2454 7.24931 17.2062 7 18.3391 7C18.9915 7 19.5926 7.09349 20.1422 7.2827C20.6919 7.47192 21.1834 7.75462 21.6169 8.13527C22.0504 8.51592 22.39 9.02791 22.6336 9.66901C22.8793 10.3101 23 11.0514 23 11.8884V18.907C23 19.2498 22.8816 19.517 22.6447 19.7084C22.4079 19.8998 22.1308 19.9978 21.8135 19.9978C21.4963 19.9978 21.2259 19.9021 21.0025 19.7084C20.779 19.517 20.6673 19.2476 20.6673 18.907V11.7971C20.6673 10.7375 20.4215 9.9339 19.9322 9.39075C19.4429 8.8476 18.748 8.57603 17.8453 8.57603C16.7728 8.57603 15.8879 8.92774 15.1908 9.62894C14.4959 10.3301 14.1474 11.3563 14.1474 12.7098V18.8959C14.1474 19.2387 14.0312 19.508 13.7988 19.7039C13.5664 19.8998 13.2916 20 12.9743 20C12.657 20 12.3956 19.9021 12.1699 19.7039C11.942 19.508 11.8281 19.2387 11.8281 18.8959V12.1199C11.8281 9.75805 10.8919 8.57825 9.01944 8.57825C7.90225 8.57825 7.01073 8.93664 6.34041 9.64897C5.67009 10.3635 5.33493 11.363 5.33493 12.6452V18.907C5.33493 19.2498 5.21651 19.517 4.97967 19.7084C4.74282 19.8998 4.46129 19.9978 4.13507 19.9978C3.80885 19.9978 3.54742 19.9021 3.32399 19.7084L3.33516 19.7128Z" fill="#EDEDED"/>
</svg>
