<svg width="120" height="33" viewBox="0 0 120 33" fill="none" xmlns="http://www.w3.org/2000/svg">
<path d="M0.862037 31.8379C0.580299 31.6017 0.4375 31.2718 0.4375 30.8483V17.7996C0.4375 17.3872 0.588018 17.0648 0.885194 16.8249C1.18237 16.5888 1.52972 16.4688 1.91952 16.4688C2.30932 16.4688 2.65667 16.5813 2.95385 16.8024C3.25102 17.0236 3.40154 17.331 3.40154 17.7208V19.1903C3.86853 18.2194 4.56323 17.4734 5.48563 16.9524C6.40804 16.4313 7.46166 16.1689 8.64651 16.1689C9.99345 16.1689 11.1397 16.4876 12.0814 17.1248C13.027 17.7621 13.6676 18.673 14.0034 19.8538C14.4588 18.6317 15.1882 17.7096 16.184 17.0948C17.1836 16.4763 18.3993 16.1689 19.8311 16.1689C20.657 16.1689 21.4174 16.2852 22.1121 16.5176C22.8068 16.75 23.4281 17.0986 23.9762 17.5709C24.5242 18.0395 24.9526 18.6692 25.2613 19.4602C25.5701 20.2511 25.7245 21.162 25.7245 22.1966V30.8483C25.7245 31.2718 25.574 31.598 25.2768 31.8379C24.9796 32.074 24.6284 32.194 24.227 32.194C23.8256 32.194 23.4822 32.074 23.2004 31.8379C22.9187 31.6017 22.7759 31.2718 22.7759 30.8483V22.0842C22.7759 20.7759 22.4671 19.79 21.8496 19.1191C21.2321 18.4481 20.3522 18.1144 19.2098 18.1144C17.8512 18.1144 16.7359 18.5455 15.8559 19.4114C14.976 20.2774 14.536 21.5406 14.536 23.2087V30.8333C14.536 31.2568 14.3893 31.5867 14.096 31.8304C13.8027 32.074 13.4554 32.194 13.054 32.194C12.6526 32.194 12.3245 32.074 12.0351 31.8304C11.7456 31.5867 11.6028 31.2568 11.6028 30.8333V22.4815C11.6028 19.5726 10.418 18.1144 8.05215 18.1144C6.6396 18.1144 5.51265 18.553 4.66357 19.4339C3.81836 20.3148 3.39382 21.5444 3.39382 23.1262V30.8445C3.39382 31.2681 3.2433 31.5942 2.94613 31.8341C2.64895 32.0703 2.29389 32.1902 1.88093 32.1902C1.46797 32.1902 1.13606 32.0703 0.854318 31.8341L0.862037 31.8379Z" fill="#181818"/>
<path d="M31.4439 30.1849C29.9735 28.6555 29.2363 26.7063 29.2363 24.3334C29.2363 21.9606 29.9735 19.9964 31.4439 18.467C32.9144 16.9376 34.8981 16.1729 37.3952 16.1729C39.8922 16.1729 41.876 16.9338 43.3464 18.4595C44.8168 19.9851 45.554 21.9419 45.554 24.3372C45.554 26.7325 44.8207 28.6593 43.3541 30.1887C41.8875 31.7181 39.8999 32.4828 37.3952 32.4828C34.8904 32.4828 32.9144 31.7181 31.4439 30.1887V30.1849ZM41.2469 28.8654C42.1654 27.7634 42.6247 26.2527 42.6247 24.3334C42.6247 22.4142 42.1616 20.911 41.2314 19.7939C40.3013 18.6769 39.0238 18.1183 37.3952 18.1183C35.7665 18.1183 34.4736 18.6731 33.5512 19.7864C32.6288 20.8998 32.1656 22.4142 32.1656 24.3334C32.1656 26.2527 32.6249 27.7371 33.5434 28.8504C34.462 29.9638 35.7356 30.5185 37.3604 30.5185C38.9852 30.5185 40.3283 29.9675 41.243 28.8654H41.2469Z" fill="#181818"/>
<path d="M54.3121 31.7108C53.3395 31.201 52.5946 30.4363 52.0736 29.4242V30.8337C52.0736 31.246 51.9501 31.5684 51.6992 31.8046C51.4484 32.0407 51.0817 32.1607 50.5916 32.1607C50.2018 32.1607 49.8583 32.0407 49.565 31.8046C49.2717 31.5684 49.125 31.2385 49.125 30.8149V10.9176C49.125 10.5053 49.2717 10.1829 49.565 9.94303C49.8583 9.70687 50.2018 9.58691 50.5916 9.58691C50.9814 9.58691 51.3403 9.70687 51.6336 9.94303C51.9269 10.1792 52.0736 10.5053 52.0736 10.9176V19.127C52.5637 18.1673 53.27 17.4364 54.2001 16.9303C55.1303 16.4243 56.1955 16.1694 57.3996 16.1694C58.5304 16.1694 59.557 16.3793 60.4872 16.7954C61.4173 17.2115 62.1814 17.785 62.7835 18.5197C63.3856 19.2544 63.8487 20.1053 64.1768 21.0837C64.501 22.0583 64.6669 23.1117 64.6669 24.24C64.6669 25.3683 64.5164 26.3916 64.2192 27.37C63.922 28.3521 63.4898 29.2218 62.9263 29.9865C62.3628 30.7512 61.6257 31.3585 60.7187 31.8046C59.8118 32.2544 58.7929 32.4755 57.6659 32.4755C56.4077 32.4755 55.2924 32.2206 54.3198 31.7071L54.3121 31.7108ZM59.3448 29.9228C59.97 29.5367 60.4447 29.0306 60.7689 28.3971C61.0931 27.7636 61.3324 27.1076 61.4867 26.4291C61.6373 25.7506 61.7145 25.0384 61.7145 24.3037C61.7145 23.569 61.6295 22.8155 61.4636 22.1221C61.2938 21.4248 61.0391 20.7688 60.6917 20.1541C60.3444 19.5356 59.8542 19.0445 59.2174 18.6734C58.5806 18.306 57.8396 18.1186 56.9944 18.1186C56.1492 18.1186 55.385 18.291 54.7405 18.6397C54.0959 18.9883 53.5826 19.4568 53.2083 20.0491C52.8339 20.6414 52.556 21.2899 52.3708 21.9946C52.1855 22.6993 52.0929 23.4565 52.0929 24.255C52.0929 28.4309 53.7756 30.5188 57.141 30.5188C57.9862 30.5076 58.7234 30.3089 59.3486 29.9265L59.3448 29.9228Z" fill="#181818"/>
<path d="M68.7632 12.3351C68.4159 12.0127 68.2422 11.5929 68.2422 11.0794C68.2422 10.5658 68.4197 10.1422 68.7709 9.81235C69.1221 9.48622 69.5891 9.32129 70.1642 9.32129C70.7392 9.32129 71.1831 9.48248 71.5304 9.80485C71.8778 10.1272 72.0514 10.5508 72.0514 11.0794C72.0514 11.6079 71.8778 12.0165 71.5304 12.3351C71.1831 12.6575 70.7199 12.8187 70.1449 12.8187C69.5698 12.8187 69.1067 12.6575 68.7593 12.3351H68.7632ZM69.1067 31.8201C68.825 31.5727 68.6822 31.2165 68.6822 30.7517V17.8942C68.6822 17.4519 68.8327 17.1033 69.1299 16.8521C69.427 16.5972 69.7782 16.4735 70.1796 16.4735C70.581 16.4735 70.9091 16.601 71.1985 16.8521C71.488 17.107 71.6308 17.4519 71.6308 17.8942V30.7517C71.6308 31.1941 71.4802 31.5464 71.1831 31.8051C70.8859 32.0637 70.5347 32.1912 70.1333 32.1912C69.7319 32.1912 69.3884 32.0675 69.1067 31.8201Z" fill="#181818"/>
<path d="M77.1355 31.8205C76.8537 31.5731 76.7109 31.217 76.7109 30.7521V11.0311C76.7109 10.5887 76.8615 10.2401 77.1586 9.98895C77.4558 9.73405 77.807 9.61035 78.2084 9.61035C78.6098 9.61035 78.9378 9.7378 79.2273 9.98895C79.5167 10.2439 79.6595 10.5887 79.6595 11.0311V30.7559C79.6595 31.1982 79.509 31.5506 79.2118 31.8092C78.9147 32.0679 78.5635 32.1953 78.1621 32.1953C77.7607 32.1953 77.4172 32.0716 77.1355 31.8242V31.8205Z" fill="#181818"/>
<path d="M84.8706 12.3351C84.5233 12.0127 84.3496 11.5929 84.3496 11.0794C84.3496 10.5658 84.5271 10.1422 84.8783 9.81235C85.2296 9.48622 85.6965 9.32129 86.2716 9.32129C86.8467 9.32129 87.2905 9.48248 87.6378 9.80485C87.9852 10.1272 88.1589 10.5508 88.1589 11.0794C88.1589 11.6079 87.9852 12.0165 87.6378 12.3351C87.2905 12.6575 86.8274 12.8187 86.2523 12.8187C85.6773 12.8187 85.2141 12.6575 84.8668 12.3351H84.8706ZM85.2141 31.8201C84.9324 31.5727 84.7896 31.2165 84.7896 30.7517V17.8942C84.7896 17.4519 84.9401 17.1033 85.2373 16.8521C85.5345 16.5972 85.8857 16.4735 86.287 16.4735C86.6884 16.4735 87.0165 16.601 87.3059 16.8521C87.5954 17.107 87.7382 17.4519 87.7382 17.8942V30.7517C87.7382 31.1941 87.5877 31.5464 87.2905 31.8051C86.9933 32.0637 86.6421 32.1912 86.2407 32.1912C85.8394 32.1912 85.4959 32.0675 85.2141 31.8201Z" fill="#181818"/>
<path d="M93.0281 31.8379C92.7463 31.6017 92.6035 31.2643 92.6035 30.8333V17.8333C92.6035 17.4135 92.7502 17.0836 93.0435 16.8437C93.3368 16.6075 93.6842 16.4876 94.0855 16.4876C94.4869 16.4876 94.8304 16.6 95.1199 16.8287C95.4093 17.0574 95.5521 17.376 95.5521 17.7846V19.1603C95.9651 18.2007 96.6405 17.4622 97.5783 16.9449C98.5162 16.4276 99.6122 16.1689 100.859 16.1689C102.65 16.1689 104.078 16.675 105.143 17.6871C106.208 18.6992 106.737 20.2324 106.737 22.2903V30.8295C106.737 31.2606 106.594 31.598 106.304 31.8341C106.015 32.0703 105.672 32.1902 105.27 32.1902C104.869 32.1902 104.525 32.0703 104.236 31.8341C103.946 31.598 103.804 31.2606 103.804 30.8295V22.2566C103.804 20.9071 103.479 19.88 102.835 19.1715C102.19 18.4668 101.28 18.1107 100.106 18.1107C98.8558 18.1107 97.806 18.5418 96.9454 19.4077C96.0886 20.2736 95.6216 21.4469 95.5444 22.9351V30.8258C95.5444 31.2493 95.3939 31.5792 95.0967 31.8229C94.7995 32.0665 94.4483 32.1865 94.0469 32.1865C93.6456 32.1865 93.3021 32.0665 93.0203 31.8304L93.0281 31.8379Z" fill="#181818"/>
<path d="M113.638 31.2367C112.901 30.4495 112.531 29.2425 112.531 27.6081V18.4992H110.543C110.184 18.4992 109.91 18.4167 109.721 18.248C109.532 18.0793 109.436 17.8544 109.436 17.5695C109.436 17.2846 109.528 17.071 109.713 16.8985C109.899 16.7261 110.169 16.6361 110.528 16.6361H112.531L112.921 12.1454C112.944 11.808 113.098 11.5194 113.384 11.2757C113.673 11.0321 113.99 10.9121 114.337 10.9121C114.661 10.9121 114.935 11.0096 115.151 11.2045C115.367 11.3994 115.476 11.6806 115.476 12.0517V16.6399H118.47C118.829 16.6399 119.096 16.7299 119.277 16.9098C119.455 17.0897 119.547 17.3221 119.547 17.607C119.547 18.2068 119.188 18.5104 118.474 18.5104H115.479V27.1321C115.479 28.2191 115.638 29.0026 115.95 29.4824C116.267 29.9622 116.765 30.2021 117.448 30.2021H117.625L118.733 30.1534H118.829C119.188 30.1534 119.47 30.2659 119.675 30.487C119.879 30.7082 119.983 30.9668 119.983 31.263C119.983 31.5254 119.925 31.739 119.806 31.904C119.686 32.0689 119.505 32.1851 119.262 32.2601C119.019 32.3351 118.772 32.38 118.528 32.4025C118.285 32.425 117.965 32.4325 117.575 32.4325H116.614C115.364 32.4325 114.372 32.0389 113.635 31.2555L113.638 31.2367Z" fill="#181818"/>
<mask id="mask0_373_5988" style="mask-type:luminance" maskUnits="userSpaceOnUse" x="67" y="0" width="22" height="7">
<path d="M87.1118 6.43491C86.8069 6.43491 86.4982 6.34119 86.2357 6.15002C86.2049 6.12753 84.1208 4.64685 81.0834 3.93088C77.1314 2.99749 73.4533 3.74345 70.1535 6.15002C69.5051 6.62234 68.5866 6.49488 68.1003 5.86513C67.614 5.23537 67.7452 4.34322 68.3936 3.8709C72.4074 0.947035 77.6601 -0.091313 82.4767 1.07823C86.0698 1.95165 87.8914 3.79593 87.9918 3.8709C88.6402 4.34322 88.7714 5.23537 88.2851 5.86513C87.9956 6.23998 87.5557 6.43491 87.1118 6.43491Z" fill="white"/>
</mask>
<g mask="url(#mask0_373_5988)">
<mask id="mask1_373_5988" style="mask-type:luminance" maskUnits="userSpaceOnUse" x="66" y="-1" width="24" height="9">
<path d="M89.4391 -0.635742H66.873V7.41238H89.4391V-0.635742Z" fill="white"/>
</mask>
<g mask="url(#mask1_373_5988)">
<path d="M67.5527 7.41211H66.873V-0.635742H67.5527V7.41211ZM68.0098 7.41211H67.5547V-0.635742H68.0098V7.41211ZM69.1465 7.41211H68.0107V-0.635742H69.1465V7.41211ZM69.6035 7.41211H69.1484V-0.635742H69.6035V7.41211ZM69.832 7.41211H69.6045V-0.635742H69.832V7.41211ZM70.2881 7.41211H69.833V-0.635742H70.2881V7.41211ZM70.7422 7.41211H70.2891V-0.635742H70.7422V7.41211ZM71.1992 7.41211H70.7471V-0.635742H71.1992V7.41211ZM71.4287 7.41211H71.2012V-0.635742H71.4287V7.41211ZM72.1123 7.41211H71.4297V-0.635742H72.1123V7.41211ZM72.3408 7.41211H72.1133V-0.635742H72.3408V7.41211ZM73.25 7.41211H72.3418V-0.635742H73.25V7.41211ZM73.9336 7.41211H73.252V-0.635742H73.9336V7.41211ZM74.6162 7.41211H73.9346V-0.635742H74.6162V7.41211ZM74.8447 7.41211H74.6172V-0.635742H74.8447V7.41211ZM75.7588 7.41211H74.8486V-0.635742H75.7588V7.41211ZM77.3525 7.41211H75.7598V-0.635742H77.3525V7.41211ZM78.4912 7.41211H77.3535V-0.635742H78.4912V7.41211ZM78.9463 7.41211H78.4922V-0.635742H78.9463V7.41211ZM79.1777 7.41211H78.9502V-0.635742H79.1777V7.41211ZM79.4062 7.41211H79.1787V-0.635742H79.4062V7.41211ZM80.0898 7.41211H79.4072V-0.635742H80.0898V7.41211ZM80.7705 7.41211H80.0908V-0.635742H80.7705V7.41211ZM81 7.41211H80.7725V-0.635742H81V7.41211ZM81.6826 7.41211H81.001V-0.635742H81.6826V7.41211ZM81.9111 7.41211H81.6836V-0.635742H81.9111V7.41211ZM82.5938 7.41211H81.9121V-0.635742H82.5938V7.41211ZM83.0498 7.41211H82.5947V-0.635742H83.0498V7.41211ZM83.7363 7.41211H83.0537V-0.635742H83.7363V7.41211ZM84.874 7.41211H83.7373V-0.635742H84.874V7.41211ZM85.3301 7.41211H84.875V-0.635742H85.3301V7.41211ZM85.5586 7.41211H85.3311V-0.635742H85.5586V7.41211ZM87.1523 7.41211H85.5596V-0.635742H87.1523V7.41211ZM87.6104 7.41211H87.1562V-0.635742H87.6104V7.41211ZM87.8389 7.41211H87.6113V-0.635742H87.8389V7.41211ZM88.5225 7.41211H87.8398V-0.635742H88.5225V7.41211ZM88.9775 7.41211H88.5244V-0.635742H88.9775V7.41211ZM89.4336 -0.635742V7.41211H88.9785V-0.635742H89.4336Z" fill="#181818"/>
</g>
</g>
</svg>
