<svg width="176" height="48" viewBox="0 0 176 48" fill="none" xmlns="http://www.w3.org/2000/svg">
<path d="M0.607504 47.0366C0.202502 46.6822 0 46.1759 0 45.5684V25.8752C0 25.2677 0.202501 24.7614 0.658129 24.407C1.11376 24.0527 1.62001 23.8502 2.17689 23.8502C2.73377 23.8502 3.24002 24.002 3.69565 24.3564C4.15128 24.7108 4.35378 25.1664 4.35378 25.7233V27.9508C5.06253 26.4827 6.07504 25.3689 7.3913 24.5589C8.75819 23.7489 10.2769 23.3945 11.9982 23.3945C13.9726 23.3945 15.6432 23.9008 17.0101 24.8627C18.377 25.8245 19.3389 27.1914 19.8451 28.9633C20.5033 27.1408 21.5664 25.7233 23.0345 24.812C24.5027 23.9008 26.2746 23.3945 28.4008 23.3945C29.6158 23.3945 30.7296 23.5464 31.7421 23.9008C32.7546 24.2552 33.6659 24.7614 34.4759 25.4702C35.2859 26.1789 35.8934 27.1408 36.349 28.3052C36.8046 29.5202 37.0071 30.8871 37.0071 32.4565V45.5178C37.0071 46.1759 36.8046 46.6316 36.349 46.9859C35.8934 47.3403 35.3871 47.5428 34.8302 47.5428C34.2227 47.5428 33.7165 47.3403 33.3115 46.9859C32.9065 46.6316 32.704 46.1253 32.704 45.5178V32.3552C32.704 30.3808 32.2483 28.9127 31.3371 27.9002C30.4258 26.8877 29.1602 26.3814 27.4896 26.3814C25.5152 26.3814 23.8445 27.0396 22.5789 28.3558C21.3133 29.6721 20.6551 31.5452 20.6551 34.0765V45.5178C20.6551 46.1759 20.4526 46.6316 19.997 47.0366C19.592 47.3909 19.0351 47.5934 18.4783 47.5934C17.9214 47.5934 17.4151 47.3909 17.0101 47.0366C16.6051 46.6822 16.4026 46.1759 16.4026 45.5178V32.9121C16.4026 28.5077 14.6814 26.3308 11.1882 26.3308C9.11256 26.3308 7.44193 26.9889 6.22692 28.3052C4.96128 29.6214 4.35378 31.4946 4.35378 33.874V45.5178C4.35378 46.1759 4.15128 46.6316 3.69565 46.9859C3.24002 47.3403 2.73377 47.5428 2.12626 47.5428C1.51876 47.5934 1.01251 47.3909 0.607504 47.0366Z" fill="white"/>
<path d="M45.6639 44.5585C43.487 42.2298 42.4238 39.2935 42.4238 35.7497C42.4238 32.1553 43.487 29.219 45.6639 26.8903C47.8407 24.5615 50.7264 23.4478 54.3714 23.4478C58.0164 23.4478 60.9527 24.6121 63.079 26.8903C65.2559 29.1684 66.319 32.1553 66.319 35.7497C66.319 39.3441 65.2559 42.2804 63.079 44.5585C60.9527 46.8873 58.0164 48.001 54.3208 48.001C50.7264 48.001 47.8407 46.8873 45.6639 44.5585ZM60.0415 42.5841C61.4083 40.9135 62.0665 38.6354 62.0665 35.7497C62.0665 32.8641 61.4083 30.5859 60.0415 28.9153C58.6746 27.2447 56.8014 26.384 54.422 26.384C52.0426 26.384 50.1189 27.2447 48.8026 28.9153C47.4357 30.5859 46.7776 32.8641 46.7776 35.8003C46.7776 38.686 47.4357 40.9135 48.8026 42.6348C50.1695 44.3054 51.992 45.166 54.422 45.166C56.8014 45.0648 58.6746 44.2041 60.0415 42.5841Z" fill="white"/>
<path d="M79.2787 46.8304C77.8612 46.071 76.7474 44.9066 75.9881 43.3878V45.5141C75.9881 46.1216 75.7856 46.6279 75.4312 46.9822C75.0768 47.3366 74.5199 47.5391 73.8112 47.5391C73.2543 47.5391 72.748 47.3366 72.2924 46.9822C71.8874 46.6279 71.6343 46.1216 71.6343 45.5141V15.4933C71.6343 14.8858 71.8368 14.3795 72.2924 14.0251C72.6974 13.6708 73.2037 13.4683 73.8112 13.4683C74.4187 13.4683 74.9249 13.6708 75.3299 14.0251C75.7349 14.3795 75.9881 14.8858 75.9881 15.4933V27.8965C76.6968 26.4284 77.7599 25.3652 79.1268 24.5552C80.4937 23.7958 82.0631 23.3908 83.835 23.3908C85.5056 23.3908 86.9738 23.6946 88.3406 24.3527C89.7075 24.9602 90.8213 25.8715 91.6819 26.9346C92.5425 28.0484 93.2513 29.314 93.7069 30.7821C94.1626 32.2503 94.4157 33.8197 94.4157 35.5409C94.4157 37.2116 94.2132 38.7809 93.7576 40.2491C93.3019 41.7172 92.6944 43.0335 91.8844 44.1979C91.0744 45.3622 89.9607 46.2735 88.6444 46.9316C87.3281 47.5898 85.8094 47.9441 84.1894 47.9441C82.3669 47.9948 80.6962 47.6404 79.2787 46.8304ZM86.67 44.1472C87.5813 43.5903 88.29 42.7803 88.7456 41.8691C89.2013 40.9072 89.5557 39.9453 89.8088 38.8822C90.0113 37.8697 90.1632 36.8065 90.1632 35.6928C90.1632 34.5284 90.0619 33.4653 89.8088 32.4021C89.5557 31.339 89.2013 30.3771 88.695 29.4152C88.1888 28.504 87.48 27.7446 86.5181 27.1877C85.6069 26.6309 84.4931 26.3777 83.2781 26.3777C82.0125 26.3777 80.8987 26.6309 79.9875 27.1877C79.0256 27.694 78.3168 28.4027 77.7599 29.314C77.2031 30.2253 76.7981 31.1871 76.5449 32.2503C76.2918 33.3134 76.1399 34.4778 76.1399 35.6422C76.1399 41.9197 78.6206 45.1091 83.5312 45.1091C84.645 45.0585 85.7588 44.7547 86.67 44.1472Z" fill="white"/>
<path d="M100.441 17.6242C99.9348 17.1179 99.6816 16.5104 99.6816 15.751C99.6816 14.9916 99.9348 14.3335 100.441 13.8273C100.947 13.321 101.656 13.0679 102.466 13.0679C103.276 13.0679 103.985 13.321 104.491 13.7766C104.997 14.2829 105.25 14.8904 105.25 15.7004C105.25 16.4598 104.997 17.1179 104.491 17.5735C103.985 18.0798 103.327 18.2823 102.466 18.2823C101.656 18.3329 100.947 18.1304 100.441 17.6242ZM100.947 47.0375C100.542 46.6831 100.34 46.1262 100.34 45.4175V26.028C100.34 25.3698 100.542 24.813 100.998 24.4586C101.454 24.0536 101.96 23.9017 102.517 23.9017C103.074 23.9017 103.58 24.1042 103.985 24.4586C104.39 24.8636 104.592 25.3698 104.592 26.028V45.4175C104.592 46.0756 104.39 46.6325 103.934 46.9869C103.479 47.3919 102.972 47.5944 102.415 47.5944C101.859 47.5944 101.403 47.3919 100.947 47.0375Z" fill="white"/>
<path d="M112.743 47.0384C112.338 46.684 112.135 46.1271 112.135 45.4184V15.6507C112.135 14.9925 112.338 14.4357 112.793 14.0813C113.249 13.6763 113.755 13.5244 114.312 13.5244C114.869 13.5244 115.375 13.7269 115.78 14.0813C116.185 14.4863 116.388 14.9925 116.388 15.6507V45.4184C116.388 46.0765 116.185 46.6334 115.73 46.9878C115.274 47.3928 114.768 47.5953 114.211 47.5953C113.654 47.5953 113.148 47.3928 112.743 47.0384Z" fill="white"/>
<path d="M124.083 17.6242C123.576 17.1179 123.323 16.5104 123.323 15.751C123.323 14.9916 123.576 14.3335 124.083 13.8273C124.589 13.321 125.298 13.0679 126.108 13.0679C126.918 13.0679 127.626 13.321 128.133 13.7766C128.639 14.2829 128.892 14.8904 128.892 15.7004C128.892 16.4598 128.639 17.1179 128.133 17.5735C127.626 18.0798 126.968 18.2823 126.108 18.2823C125.247 18.3329 124.589 18.1304 124.083 17.6242ZM124.589 47.0375C124.184 46.6831 123.981 46.1262 123.981 45.4175V26.028C123.981 25.3698 124.184 24.813 124.64 24.4586C125.095 24.0536 125.601 23.9017 126.158 23.9017C126.715 23.9017 127.221 24.1042 127.626 24.4586C128.031 24.8636 128.234 25.3698 128.234 26.028V45.4175C128.234 46.0756 128.031 46.6325 127.576 46.9869C127.12 47.3919 126.614 47.5944 126.057 47.5944C125.5 47.5944 124.994 47.3919 124.589 47.0375Z" fill="white"/>
<path d="M136.03 47.0392C135.625 46.6848 135.423 46.1785 135.423 45.5204V25.9284C135.423 25.2703 135.625 24.8146 136.081 24.4603C136.486 24.1059 137.043 23.9034 137.6 23.9034C138.207 23.9034 138.714 24.0553 139.119 24.4096C139.524 24.764 139.726 25.2196 139.726 25.8778V27.9534C140.334 26.4853 141.346 25.3715 142.713 24.6121C144.08 23.8528 145.7 23.4478 147.522 23.4478C150.155 23.4478 152.23 24.2071 153.8 25.7259C155.369 27.2447 156.129 29.5734 156.129 32.6616V45.5204C156.129 46.1785 155.926 46.6848 155.521 47.0392C155.116 47.3935 154.61 47.596 154.002 47.596C153.395 47.596 152.889 47.3935 152.484 47.0392C152.079 46.6848 151.876 46.1785 151.876 45.5204V32.6109C151.876 30.5859 151.42 29.0165 150.459 27.9534C149.497 26.8903 148.18 26.3334 146.459 26.3334C144.637 26.3334 143.067 26.9915 141.852 28.3078C140.587 29.624 139.929 31.3959 139.777 33.6234V45.5204C139.777 46.1785 139.574 46.6342 139.119 47.0392C138.663 47.3935 138.157 47.596 137.6 47.596C136.942 47.596 136.435 47.3935 136.03 47.0392Z" fill="white"/>
<path d="M166.203 46.1243C165.14 44.9599 164.583 43.1374 164.583 40.6567V26.9373H161.646C161.14 26.9373 160.735 26.7854 160.431 26.5323C160.128 26.2791 160.026 25.9248 160.026 25.5198C160.026 25.1148 160.178 24.7604 160.431 24.5072C160.684 24.2541 161.09 24.1022 161.646 24.1022H164.583L165.14 17.3185C165.19 16.8122 165.393 16.3566 165.798 16.0022C166.203 15.6478 166.709 15.4453 167.215 15.4453C167.671 15.4453 168.076 15.5972 168.43 15.9009C168.734 16.2047 168.886 16.6097 168.886 17.1666V24.1022H173.29C173.796 24.1022 174.201 24.2541 174.455 24.5072C174.708 24.7604 174.86 25.1148 174.86 25.5704C174.86 26.4816 174.353 26.9373 173.29 26.9373H168.886V39.948C168.886 41.568 169.139 42.783 169.595 43.4917C170.05 44.2005 170.81 44.5549 171.771 44.5549H172.025L173.645 44.5043H173.796C174.303 44.5043 174.758 44.6561 175.062 45.0105C175.366 45.3649 175.518 45.7193 175.518 46.1749C175.518 46.5799 175.416 46.8836 175.265 47.1368C175.113 47.3899 174.809 47.5418 174.455 47.6936C174.1 47.7949 173.746 47.8961 173.391 47.8961C173.037 47.9468 172.581 47.9468 171.974 47.9468H170.556C168.734 47.8962 167.266 47.3393 166.203 46.1243Z" fill="white"/>
<mask id="mask0_423_3497" style="mask-type:alpha" maskUnits="userSpaceOnUse" x="99" y="0" width="31" height="9">
<path d="M99.9344 4.91654C105.807 0.512245 113.502 -1.05748 120.59 0.714391C125.852 2.03 128.535 4.81263 128.689 4.91654C129.651 5.62529 129.854 6.99259 129.095 7.90384C128.639 8.41007 127.98 8.71342 127.322 8.71342C126.867 8.71331 126.411 8.56216 126.056 8.30912C126.005 8.25818 122.968 6.03038 118.514 4.96732C112.742 3.54991 107.326 4.66415 102.516 8.30912C101.555 9.01783 100.238 8.81505 99.5291 7.90384C98.8204 6.94196 99.0231 5.62529 99.9344 4.91654Z" fill="#ABABAB"/>
</mask>
<g mask="url(#mask0_423_3497)">
<path d="M130.006 -1.30762H98.5166V10.0325H130.006V-1.30762Z" fill="white"/>
</g>
</svg>
