<svg width="20" height="13" viewBox="0 0 20 13" fill="none" xmlns="http://www.w3.org/2000/svg">
<path d="M0.335158 12.7128C0.111719 12.5214 0 12.2521 0 11.9115V1.32449C0 0.990582 0.118423 0.727911 0.355268 0.534246C0.592113 0.342808 0.864708 0.244863 1.17305 0.244863C1.4814 0.244863 1.75399 0.333904 1.99084 0.514212C2.22768 0.69452 2.34611 0.941609 2.34611 1.25771V2.45086C2.71478 1.66284 3.26444 1.05959 3.99508 0.634418C4.72573 0.211472 5.55692 0 6.49313 0C7.5567 0 8.46386 0.258219 9.21014 0.776883C9.95643 1.29555 10.4636 2.03236 10.7295 2.98955C11.0893 1.99675 11.6657 1.25103 12.4545 0.750171C13.2454 0.249315 14.2062 0 15.3391 0C15.9915 0 16.5926 0.0934924 17.1422 0.282705C17.6919 0.471917 18.1834 0.754623 18.6169 1.13527C19.0504 1.51592 19.39 2.02791 19.6336 2.66901C19.8793 3.3101 20 4.05137 20 4.88836V11.907C20 12.2498 19.8816 12.517 19.6447 12.7084C19.4079 12.8998 19.1308 12.9978 18.8135 12.9978C18.4963 12.9978 18.2259 12.9021 18.0025 12.7084C17.779 12.517 17.6673 12.2476 17.6673 11.907V4.79709C17.6673 3.7375 17.4215 2.9339 16.9322 2.39075C16.4429 1.8476 15.748 1.57603 14.8453 1.57603C13.7728 1.57603 12.8879 1.92774 12.1908 2.62894C11.4959 3.33014 11.1474 4.35634 11.1474 5.70976V11.8959C11.1474 12.2387 11.0312 12.508 10.7988 12.7039C10.5664 12.8998 10.2916 13 9.9743 13C9.65702 13 9.3956 12.9021 9.16992 12.7039C8.94202 12.508 8.82806 12.2387 8.82806 11.8959V5.11986C8.82806 2.75805 7.89186 1.57825 6.01944 1.57825C4.90225 1.57825 4.01073 1.93664 3.34041 2.64897C2.67009 3.36353 2.33493 4.36301 2.33493 5.64521V11.907C2.33493 12.2498 2.21651 12.517 1.97967 12.7084C1.74282 12.8998 1.46129 12.9978 1.13507 12.9978C0.808848 12.9978 0.547425 12.9021 0.323986 12.7084L0.335158 12.7128Z" fill="#4D4D4D"/>
</svg>
