<svg width="76" height="72" viewBox="0 0 76 72" fill="none" xmlns="http://www.w3.org/2000/svg">
<path d="M42.1693 26.8382C42.1693 24.5354 40.3026 22.6687 37.9999 22.6687C35.6972 22.6687 33.8305 24.5354 33.8305 26.8381V45.1618C33.8305 47.4645 35.6972 49.3312 37.9999 49.3312C40.3026 49.3312 42.1693 47.4645 42.1693 45.1618V26.8382ZM25.4916 13.5069C25.4916 11.2042 23.6248 9.33745 21.3221 9.33745C19.0194 9.33745 17.1527 11.2042 17.1527 13.5069V58.493C17.1527 60.7957 19.0194 62.6625 21.3221 62.6625C23.6248 62.6625 25.4916 60.7957 25.4916 58.493V13.5069ZM58.8471 4.61939C58.8471 2.31667 56.9804 0.449951 54.6777 0.449951C52.375 0.449951 50.5082 2.31667 50.5082 4.61939V67.3805C50.5082 69.6832 52.375 71.55 54.6777 71.55C56.9804 71.55 58.8471 69.6832 58.8471 67.3805V4.61939ZM8.81379 35.7256C8.81379 33.4229 6.94707 31.5562 4.64435 31.5562C2.34162 31.5562 0.474899 33.4229 0.474899 35.7256V36.2743C0.474899 38.577 2.34162 40.4437 4.64435 40.4437C6.94707 40.4437 8.81379 38.577 8.81379 36.2743V35.7256ZM75.5249 31.2819C75.5249 28.9792 73.6582 27.1125 71.3555 27.1125C69.0527 27.1125 67.186 28.9792 67.186 31.2819V40.718C67.186 43.0207 69.0527 44.8875 71.3555 44.8875C73.6582 44.8875 75.5249 43.0207 75.5249 40.718V31.2819Z" fill="white"/>
</svg>
