<svg width="18" height="16" viewBox="0 0 18 16" fill="none" xmlns="http://www.w3.org/2000/svg">
<path d="M12.4907 0.144531C15.5688 1.49467 17.7259 4.42968 17.7261 8C17.726 11.5703 15.5687 14.5043 12.4907 15.8545V14.1094C14.5738 12.8997 15.9809 10.5771 15.981 8C15.9808 5.42288 14.5739 3.10024 12.4907 1.89062V0.144531ZM9.83154 0.145508C9.98896 0.138033 10.1457 0.173743 10.2847 0.248047C10.4238 0.322531 10.5404 0.434002 10.6216 0.569336C10.7026 0.704621 10.7455 0.859878 10.7456 1.01758V14.9814C10.7457 15.1393 10.7025 15.2942 10.6216 15.4297C10.5405 15.5652 10.4238 15.6764 10.2847 15.751C10.1453 15.8251 9.9882 15.8602 9.83057 15.8525C9.67309 15.8448 9.52055 15.7952 9.38916 15.708L4.37256 12.3633H2.01807C1.05549 12.3632 0.272949 11.5798 0.272949 10.6172V5.38086C0.273252 4.41852 1.05568 3.63585 2.01807 3.63574H4.37256L9.39014 0.291016C9.52142 0.203824 9.67412 0.153039 9.83154 0.145508ZM5.12061 5.23438C5.09893 5.24814 5.07186 5.25079 5.04932 5.26367C4.94655 5.31857 4.83319 5.35241 4.71729 5.36426C4.68961 5.36697 4.66479 5.38079 4.63623 5.38086H2.01807V10.6172H4.63623C4.66407 10.6173 4.68845 10.6312 4.71631 10.6338C4.83298 10.6445 4.94642 10.6793 5.04932 10.7354C5.07197 10.7467 5.09881 10.7499 5.12061 10.7646L9.00049 13.3516V2.64746L5.12061 5.23438ZM12.4917 3.63574C13.5606 4.5957 14.2366 6.45359 14.2368 7.99902C14.2368 9.54452 13.5606 11.4031 12.4917 12.3633V3.63574Z" fill="#646464"/>
</svg>
