<svg width="25" height="25" viewBox="0 0 25 25" fill="none" xmlns="http://www.w3.org/2000/svg">
<path d="M14.1816 2.84563L11.9854 5.04094H4.46875V20.4111H7.73926C7.77645 20.4122 7.81253 20.4227 7.84863 20.4228C7.87715 20.4228 7.90702 20.4111 7.93555 20.4111H19.8389V13.0907L22.0342 10.8954V20.4111C22.0342 21.622 21.0498 22.6073 19.8389 22.6073H4.46875C3.25778 22.6073 2.27246 21.622 2.27246 20.4111V5.04094C2.27256 3.83005 3.25784 2.84563 4.46875 2.84563H14.1816ZM17.2412 2.89055C18.0646 2.06828 19.5128 2.06361 20.3428 2.89348L22.084 4.63469C22.499 5.04969 22.7275 5.60115 22.7275 6.18742C22.7275 6.77367 22.499 7.32517 22.084 7.74016L11.5088 18.2138L6.66406 18.2304V13.3661L17.2412 2.89055ZM8.86035 14.2821V16.0263L10.6025 16.0214L17.2217 9.46574L15.4805 7.72453L8.86035 14.2821ZM17.04 6.18059L18.7812 7.92082L20.5352 6.18449L18.79 4.44621L17.04 6.18059Z" fill="#EDEDED"/>
</svg>
