<svg width="21" height="21" viewBox="0 0 21 21" fill="none" xmlns="http://www.w3.org/2000/svg">
<path d="M12.1816 0.845748L9.98535 3.04106H2.46875V18.4112H5.73926C5.77645 18.4123 5.81253 18.4229 5.84863 18.4229C5.87715 18.4229 5.90702 18.4112 5.93555 18.4112H17.8389V11.0909L20.0342 8.89555V18.4112C20.0342 19.6221 19.0498 20.6075 17.8389 20.6075H2.46875C1.25778 20.6075 0.272461 19.6221 0.272461 18.4112V3.04106C0.27256 1.83018 1.25784 0.845748 2.46875 0.845748H12.1816ZM15.2412 0.89067C16.0646 0.0683984 17.5128 0.0637333 18.3428 0.8936L20.084 2.63481C20.499 3.04981 20.7275 3.60127 20.7275 4.18755C20.7275 4.77379 20.499 5.32529 20.084 5.74028L9.50879 16.2139L4.66406 16.2305V11.3663L15.2412 0.89067ZM6.86035 12.2823V14.0264L8.60254 14.0215L15.2217 7.46587L13.4805 5.72465L6.86035 12.2823ZM15.04 4.18071L16.7812 5.92094L18.5352 4.18462L16.79 2.44633L15.04 4.18071Z" fill="#4D4D4D"/>
</svg>
