<svg width="17" height="21" viewBox="0 0 17 21" fill="none" xmlns="http://www.w3.org/2000/svg">
<path d="M2.5 10.5107C2.5 13.8196 5.19112 16.5107 8.5 16.5107C11.8089 16.5107 14.5 13.8197 14.5 10.5107H16.5C16.5 14.5837 13.4389 17.9464 9.5 18.4414V20.5107H7.5V18.4414C3.56116 17.9463 0.5 14.5826 0.5 10.5107H2.5ZM8.52051 0.489258C10.7145 0.489258 12.5 2.29378 12.5 4.51074V10.5107C12.4997 12.7165 10.7058 14.5097 8.5 14.5098C6.29419 14.5098 4.50026 12.7165 4.5 10.5107V4.51074C4.50136 3.48289 4.898 2.49474 5.60742 1.75098C6.31686 1.00729 7.28495 0.564531 8.31152 0.514648C8.37988 0.498491 8.45027 0.489712 8.52051 0.489258Z" fill="#A8A8A8"/>
</svg>
