<svg width="21" height="19" viewBox="0 0 21 19" fill="none" xmlns="http://www.w3.org/2000/svg">
<path d="M14.3193 0.90918C17.686 2.38592 20.0456 5.59602 20.0459 9.50098C20.0459 13.4062 17.686 16.6158 14.3193 18.0928V16.1836C16.5977 14.8604 18.1367 12.3198 18.1367 9.50098C18.1364 6.68249 16.5975 4.1424 14.3193 2.81934V0.90918ZM11.4102 0.911133C11.5824 0.902894 11.7542 0.941211 11.9062 1.02246C12.0584 1.1039 12.1866 1.22607 12.2754 1.37402C12.3639 1.52189 12.411 1.69194 12.4111 1.86426V17.1377C12.4112 17.3104 12.364 17.4807 12.2754 17.6289C12.1867 17.7771 12.0585 17.8979 11.9062 17.9795C11.7538 18.0606 11.5826 18.0992 11.4102 18.0908C11.2378 18.0824 11.0706 18.028 10.9268 17.9326L5.43945 14.2744H2.86426C1.81155 14.2743 0.955328 13.4179 0.955078 12.3652V6.63672C0.955469 5.58416 1.81164 4.72766 2.86426 4.72754H5.43945L10.9277 1.06934C11.0712 0.973994 11.2381 0.919439 11.4102 0.911133ZM6.25781 6.47656C6.23404 6.49168 6.2044 6.49362 6.17969 6.50781C6.06721 6.56794 5.94426 6.60617 5.81738 6.61914C5.78691 6.622 5.75992 6.63665 5.72852 6.63672H2.86426V12.3652H5.72852C5.75894 12.3653 5.785 12.3799 5.81543 12.3828C5.94296 12.3945 6.06718 12.432 6.17969 12.4932C6.20438 12.5055 6.23401 12.5094 6.25781 12.5254L10.502 15.3545V3.64746L6.25781 6.47656ZM14.3203 4.72754C15.4896 5.77756 16.2294 7.81045 16.2295 9.50098C16.2295 11.1915 15.4896 13.2243 14.3203 14.2744V4.72754Z" fill="#A8A8A8"/>
</svg>
